<?xml version="1.0" encoding="UTF-8"?><svg id="Capa_1" xmlns="http://www.w3.org/2000/svg" viewBox="0 0 197.95 51.26"><defs><style>.cls-1{fill:#ffffff;}</style></defs><path class="cls-1" d="m189.13,14.79c-3.11,0-5.65-2.53-5.65-5.64s2.53-5.64,5.65-5.64,5.65,2.51,5.65,5.67-2.56,5.61-5.65,5.61Zm0-9.83c-1.69,0-3.03.91-3.69,2.45-.23.54-.38,1.13-.38,1.73s.15,1.2.38,1.76c.68,1.53,2.01,2.42,3.69,2.42,1.79,0,3.17-1.03,3.79-2.69.18-.46.28-.96.28-1.45,0-2.3-1.7-4.23-4.07-4.23Z"/><path class="cls-1" d="m125.98,14.86c-2.45,0-4.44-1.99-4.44-4.44V3.72h1.59v6.7c0,1.57,1.28,2.85,2.85,2.85s2.85-1.28,2.85-2.85V3.72h1.59v6.7c0,2.45-1.99,4.44-4.44,4.44Z"/><path class="cls-1" d="m95.47,14.59h1.98l-2.67-4.03c.52-.13,1.01-.36,1.41-.75.38-.36.63-.81.8-1.3.01-.03.02-.07.03-.1.01-.05.03-.1.04-.15.02-.09.04-.19.06-.29,0-.03.01-.07.02-.1,0-.07.02-.13.03-.2,0-.05,0-.09.01-.14,0-.07,0-.15,0-.22,0-.02,0-.05,0-.07,0,0,0-.01,0-.02s0-.01,0-.02c0-.02,0-.04,0-.06,0-.07,0-.15,0-.22,0-.05,0-.1-.01-.15,0-.06-.01-.11-.02-.17,0-.07-.02-.14-.04-.21-.01-.05-.02-.11-.03-.16h0c-.14-.6-.43-1.17-.88-1.61-.76-.75-1.87-.91-2.89-.91h-3.36v10.87h1.59v-3.87h1.48l2.47,3.87Zm-3.95-9.41h1.67c.92,0,1.78.35,2.18,1.07.14.26.23.58.23.97,0,.2-.02.39-.07.55,0,.02-.01.04-.02.06-.02.06-.03.11-.05.16-.01.03-.03.07-.04.1-.01.03-.03.06-.05.09-.02.04-.05.08-.07.12,0,.01-.02.02-.03.04-.09.13-.2.25-.32.35-.04.03-.07.06-.11.09-.01,0-.02.02-.04.02-.19.13-.4.23-.62.3-.01,0-.02,0-.03.01-.03.01-.07.02-.1.03-.27.07-.56.11-.86.11h-1.67v-4.08Z"/><path class="cls-1" d="m160.05,8.25c.02-.09.04-.19.06-.29,0-.03.01-.07.02-.1,0-.07.02-.13.03-.2,0-.05,0-.09.01-.14,0-.07,0-.15,0-.22,0-.02,0-.05,0-.07,0,0,0-.01,0-.02,0,0,0-.01,0-.02,0-.02,0-.04,0-.06,0-.07,0-.15,0-.22,0-.05,0-.1-.01-.15,0-.06-.01-.11-.02-.17,0-.07-.02-.14-.04-.21-.01-.05-.02-.11-.03-.16h0c-.14-.6-.43-1.17-.88-1.61-.76-.75-1.87-.91-2.89-.91h-3.36v10.87h1.59v-3.87h1.78c1.03,0,2.13-.16,2.89-.91.38-.36.63-.81.8-1.3.01-.03.02-.07.03-.1.01-.05.03-.1.04-.15Zm-5.54-3.08h1.67c.92,0,1.78.35,2.18,1.07.14.26.23.58.23.97,0,.2-.02.39-.07.55,0,.02-.01.04-.02.06-.02.06-.03.11-.05.16-.01.03-.03.07-.04.1-.01.03-.03.06-.05.09-.02.04-.05.08-.07.12,0,.01-.02.02-.03.04-.09.13-.2.25-.32.35-.04.03-.07.06-.11.09-.01,0-.02.02-.04.02-.19.13-.4.23-.62.3-.01,0-.02,0-.03.01-.03.01-.07.02-.1.03-.27.07-.56.11-.86.11h-1.67v-4.08Z"/><path class="cls-1" d="m66.63,9.14h-5.01v1.49h3.78c-.6,1.51-2.06,2.57-3.78,2.57-2.24,0-4.07-1.82-4.07-4.07s1.82-4.07,4.07-4.07c1.12,0,2.17.45,2.94,1.26h0s.02.02.02.03h1.95c-.23-.4-.5-.78-.83-1.12h0c-1.08-1.13-2.53-1.75-4.09-1.75-3.11,0-5.65,2.53-5.65,5.65s2.53,5.65,5.65,5.65,5.65-2.53,5.65-5.65h-.64Z"/><path class="cls-1" d="m128.04,27.12h-.06c-2.29-1.63-4.77-2.45-7.45-2.45s-4.95.75-7.16,2.24c-3.59,2.71-5.37,6.14-5.37,10.29,0,2.68.84,5.2,2.52,7.57,2.74,3.28,5.98,4.92,9.73,4.92h.66c2.43,0,4.79-.82,7.12-2.46v2.46h4.98v-25.02h-4.98v2.45Zm0,10.31c0,1.35-.46,2.73-1.37,4.11-1.68,2.11-3.66,3.16-5.92,3.16h-.32c-1.17,0-2.31-.29-3.44-.88-2.66-1.65-4-3.88-4-6.67,0-1.48.48-2.93,1.43-4.34,1.65-2.11,3.67-3.16,6.07-3.16,1.28,0,2.56.35,3.83,1.05,2.48,1.65,3.72,3.79,3.72,6.39v.35Z"/><path class="cls-1" d="m102.38,41.3c-1.68,2.26-3.79,3.4-6.31,3.4-1.22,0-2.44-.31-3.66-.94-2.6-1.68-3.89-3.87-3.89-6.56,0-1.28.37-2.6,1.09-3.93,1.71-2.41,3.83-3.62,6.35-3.62,2.66,0,4.77,1.13,6.35,3.4,0,0,.05-.02.11-.06l3.2-3.84c-2.62-2.98-5.78-4.48-9.49-4.48-3.19,0-6.01,1.08-8.48,3.22-2.73,2.65-4.11,5.74-4.11,9.26,0,2.75.86,5.3,2.57,7.65,2.69,3.26,6,4.88,9.92,4.88h.15c2.83,0,5.43-.94,7.78-2.8.76-.68,1.34-1.25,1.76-1.71l-3.3-3.84-.03-.02Z"/><path class="cls-1" d="m165.54,24.66c-3.05,0-5.78.98-8.17,2.95-2.95,2.69-4.43,5.87-4.43,9.58,0,2.91.98,5.59,2.95,8.06,2.63,2.95,5.81,4.43,9.53,4.43h.11c3.17,0,5.99-1.12,8.43-3.34l-3.15-3.79-.02-.03c-1.59,1.46-3.36,2.18-5.33,2.18-1.17,0-2.29-.27-3.37-.81-1.84-.98-3.07-2.4-3.68-4.23h19.33c.14-.73.23-1.56.26-2.51,0-2.89-.98-5.58-2.95-8.07-2.67-2.95-5.84-4.42-9.52-4.42Zm-7.12,10.03l.5-1.22c1.69-2.55,3.87-3.83,6.51-3.83,1.22,0,2.46.31,3.72.95,1.7,1.07,2.82,2.44,3.38,4.1h-14.12Z"/><path class="cls-1" d="m152.98,24.66c-3.98,0-7.31.95-9.95,2.84h-.06v-2.84h-4.99v25.02h4.99v-12.25c0-.84.19-1.75.6-2.74,1.45-3.36,4.59-5.04,9.41-5.04v-4.98Z"/><polygon class="cls-1" points="73.14 37.15 83.53 24.66 77.08 24.66 76.44 25.37 69.92 33.26 62.69 24.66 62.69 24.66 62.68 24.66 56.44 24.66 57.39 25.78 66.58 37.15 66.58 37.19 56.23 49.62 56.23 49.68 62.76 49.68 69.85 41.08 77.1 49.7 83.65 49.7 73.14 37.15"/><polygon class="cls-1" points="194.78 24.66 188.89 24.66 188.89 20.12 184.1 20.12 184.1 24.66 178.21 24.66 178.21 29.45 184.1 29.45 184.1 49.63 188.89 49.63 188.89 29.45 194.78 29.45 194.78 24.66"/><path class="cls-1" d="m192.07,46.5c0-.27.05-.53.15-.77.1-.24.24-.44.42-.61.18-.17.38-.31.62-.41s.48-.15.75-.15.51.05.75.15.44.23.62.41c.18.17.32.38.42.61.1.24.15.49.15.77s-.05.53-.15.77c-.1.24-.24.44-.42.61-.18.17-.38.31-.62.41s-.48.15-.75.15-.51-.05-.75-.15-.44-.23-.62-.41c-.18-.17-.32-.38-.42-.61-.1-.24-.15-.49-.15-.77Zm.34,0c0,.24.04.46.13.66s.2.38.34.52c.14.15.31.26.51.35.19.09.4.13.63.13s.43-.04.62-.13c.19-.09.36-.2.51-.35.14-.15.26-.32.34-.52s.13-.42.13-.66-.04-.45-.13-.65c-.08-.2-.2-.38-.34-.53-.14-.15-.31-.26-.51-.35-.19-.09-.4-.13-.62-.13s-.43.04-.63.13c-.19.09-.36.2-.51.35-.14.15-.26.32-.34.53-.08.2-.13.42-.13.65Zm.85-1.14h.85c.53,0,.79.22.79.65,0,.2-.06.36-.17.45-.11.1-.26.15-.43.17l.65,1h-.37l-.61-.97h-.37v.97h-.34v-2.27Zm.34,1.01h.35c.08,0,.15,0,.22,0,.07,0,.14-.02.19-.04.06-.02.1-.06.14-.11.03-.05.05-.12.05-.21,0-.08-.02-.14-.05-.18-.03-.05-.07-.08-.12-.11-.05-.02-.1-.04-.16-.05-.06,0-.12-.01-.18-.01h-.45v.73Z"/><path class="cls-1" d="m34.93,48.77l-15.2-15.2,5.33-5.33,20.63,20.63h-10.76v-.1Zm-19.84.1H4.44l14.41-14.41,5.33,5.33-9.08,9.08ZM4.44,4.06h10.66l15.3,15.3-5.33,5.33L4.44,4.06Zm30.5,0h10.66l-14.31,14.41-5.33-5.33,8.98-9.08Zm13.72-1.28h-14.21l-9.38,9.38L15.59,2.78H1.38v14.21l8.49,8.49,7.11-7.11.89.89L1.38,35.84v14.21h14.21l9.38-9.38,9.38,9.38h14.21v-14.21l-8.49-8.49-7.11,7.11-.89-.89,16.58-16.58V2.78Z"/></svg>